<svg width="374" height="157" viewBox="0 0 374 157" fill="none" xmlns="http://www.w3.org/2000/svg">
<path d="M34.54 90.6967C34.54 89.2775 35.2785 87.9607 36.4894 87.2205L71.4017 65.702C74.1164 64.0426 77.6005 65.9964 77.6005 69.1781V129.342C77.6005 130.706 76.9181 131.979 75.7825 132.735L40.8702 156.218C38.1624 158.019 34.54 156.078 34.54 152.826L34.54 90.6967Z" fill="black"/>
<path d="M74.4541 0.565754C75.5499 -0.0811406 76.885 -0.178923 78.0634 0.30151L109.084 13.4258C112.178 14.6873 112.522 18.9318 109.671 20.6744L36.7776 65.2285C35.6052 65.9451 34.1505 66.0226 32.9088 65.4344L2.33016 50.5264C-0.622425 49.1278 -0.810432 44.997 2.00292 43.3361L74.4541 0.565754Z" fill="black"/>
<path d="M363.459 119.999C357.23 119.999 352.455 118.649 349.132 115.95C345.879 113.251 344.253 108.96 344.253 103.077V52.8285C344.253 51.5827 344.98 50.5791 346.433 49.8178C347.887 49.0564 349.375 48.6758 350.897 48.6758C352.558 48.6758 354.081 49.0564 355.465 49.8178C356.919 50.5791 357.646 51.5827 357.646 52.8285V70.6853H369.896C371.003 70.6853 371.834 71.2044 372.388 72.2426C373.011 73.2115 373.322 74.3189 373.322 75.5647C373.322 76.8106 373.011 77.9526 372.388 78.9907C371.834 79.9597 371.003 80.4442 369.896 80.4442H357.646V103.077C357.646 105.153 358.061 106.606 358.891 107.437C359.791 108.268 361.314 108.683 363.459 108.683H367.508C369.446 108.683 370.865 109.271 371.765 110.448C372.734 111.624 373.218 112.905 373.218 114.289C373.218 115.742 372.734 117.057 371.765 118.234C370.865 119.411 369.446 119.999 367.508 119.999H363.459Z" fill="black"/>
<path d="M327.482 59.6807C325.475 59.6807 323.745 59.0232 322.292 57.7082C320.838 56.3239 320.111 54.8013 320.111 53.1402C320.111 51.3406 320.838 49.818 322.292 48.5722C323.745 47.2571 325.475 46.5996 327.482 46.5996C329.559 46.5996 331.289 47.2571 332.673 48.5722C334.058 49.818 334.75 51.3406 334.75 53.1402C334.75 54.8013 334.058 56.3239 332.673 57.7082C331.289 59.0232 329.559 59.6807 327.482 59.6807ZM327.482 119.999C325.544 119.999 323.953 119.549 322.707 118.65C321.461 117.75 320.838 116.746 320.838 115.639V74.8382C320.838 73.5924 321.461 72.5888 322.707 71.8275C323.953 71.0661 325.544 70.6855 327.482 70.6855C329.351 70.6855 330.943 71.0661 332.258 71.8275C333.573 72.5888 334.231 73.5924 334.231 74.8382V115.639C334.231 116.746 333.573 117.75 332.258 118.65C330.943 119.549 329.351 119.999 327.482 119.999Z" fill="black"/>
<path d="M276.283 119.999C274.414 119.999 272.857 119.549 271.611 118.65C270.365 117.75 269.742 116.746 269.742 115.639V46.0805C269.742 44.8346 270.365 43.8311 271.611 43.0697C272.857 42.3084 274.414 41.9277 276.283 41.9277C278.221 41.9277 279.847 42.3084 281.162 43.0697C282.477 43.8311 283.135 44.8346 283.135 46.0805V89.5804L302.756 71.2045C303.449 70.5124 304.314 70.1663 305.352 70.1663C306.39 70.1663 307.394 70.5124 308.363 71.2045C309.401 71.8274 310.231 72.6234 310.854 73.5923C311.546 74.5613 311.892 75.5649 311.892 76.6031C311.892 77.0183 311.789 77.4682 311.581 77.9527C311.443 78.368 311.166 78.7487 310.75 79.0947L298.5 90.2033L313.865 112.005C314.349 112.766 314.592 113.493 314.592 114.185C314.592 115.224 314.176 116.262 313.346 117.3C312.515 118.338 311.512 119.203 310.335 119.895C309.159 120.518 308.017 120.83 306.909 120.83C305.525 120.83 304.418 120.241 303.587 119.065L289.675 98.5088L283.135 104.323V115.639C283.135 116.746 282.477 117.75 281.162 118.65C279.847 119.549 278.221 119.999 276.283 119.999Z" fill="black"/>
<path d="M221.94 119.999C220.002 119.999 218.41 119.549 217.165 118.65C215.919 117.75 215.296 116.746 215.296 115.639V74.8381C215.296 73.5923 215.919 72.5888 217.165 71.8274C218.41 71.0661 220.002 70.6854 221.94 70.6854C223.601 70.6854 224.986 71.0661 226.093 71.8274C227.27 72.5888 227.858 73.5923 227.858 74.8381V77.9527C228.896 75.9455 230.592 74.146 232.945 72.5541C235.367 70.893 238.309 70.0625 241.77 70.0625C245.023 70.0625 247.999 71.0315 250.698 72.9694C253.397 74.8381 255.543 77.3644 257.135 80.5482C258.796 83.7319 259.626 87.2617 259.626 91.1376V115.639C259.626 117.092 258.934 118.2 257.55 118.961C256.166 119.653 254.608 119.999 252.878 119.999C251.355 119.999 249.867 119.653 248.414 118.961C246.961 118.2 246.234 117.092 246.234 115.639V91.1376C246.234 89.5457 245.818 88.0577 244.988 86.6734C244.227 85.2892 243.154 84.1472 241.77 83.2474C240.385 82.2785 238.863 81.794 237.202 81.794C235.817 81.794 234.468 82.1746 233.153 82.936C231.838 83.6973 230.765 84.7701 229.934 86.1544C229.104 87.5386 228.688 89.1997 228.688 91.1376V115.639C228.688 116.746 228.031 117.75 226.716 118.65C225.401 119.549 223.809 119.999 221.94 119.999Z" fill="black"/>
<path d="M188.163 120.934C183.249 120.934 178.888 120.068 175.082 118.338C171.344 116.539 168.403 114.047 166.257 110.863C164.111 107.61 163.039 103.873 163.039 99.6507V90.8262C163.039 87.0887 164.042 83.6627 166.049 80.5482C168.126 77.3644 170.86 74.8381 174.251 72.9694C177.712 71.0315 181.553 70.0625 185.775 70.0625C189.651 70.0625 193.181 70.893 196.364 72.5541C199.617 74.2152 202.247 76.4992 204.254 79.4062C206.262 82.3131 207.265 85.7045 207.265 89.5804C207.265 92.5565 206.781 94.7021 205.812 96.0171C204.843 97.2629 203.597 98.0589 202.074 98.4049C200.621 98.6818 199.098 98.8202 197.506 98.8202H176.431V100.377C176.431 103.354 177.539 105.776 179.753 107.645C182.037 109.444 184.979 110.344 188.578 110.344C190.862 110.344 192.765 109.998 194.288 109.306C195.811 108.614 197.126 107.956 198.233 107.333C199.34 106.71 200.379 106.399 201.348 106.399C202.386 106.399 203.285 106.745 204.047 107.437C204.808 108.129 205.396 108.96 205.812 109.929C206.227 110.829 206.435 111.624 206.435 112.317C206.435 113.493 205.673 114.774 204.151 116.158C202.697 117.473 200.586 118.615 197.818 119.584C195.118 120.484 191.9 120.934 188.163 120.934ZM176.431 90.93H191.589C192.765 90.93 193.561 90.757 193.976 90.4109C194.461 89.9956 194.703 89.2343 194.703 88.1269C194.703 86.535 194.253 85.1162 193.354 83.8703C192.523 82.6245 191.416 81.6556 190.031 80.9634C188.716 80.2713 187.228 79.9253 185.567 79.9253C183.975 79.9253 182.487 80.2713 181.103 80.9634C179.719 81.5863 178.577 82.5207 177.677 83.7665C176.846 84.9431 176.431 86.362 176.431 88.0231V90.93Z" fill="black"/>
<path d="M148.827 119.999C142.598 119.999 137.822 118.649 134.5 115.95C131.247 113.251 129.621 108.96 129.621 103.077V52.8285C129.621 51.5827 130.347 50.5791 131.801 49.8178C133.254 49.0564 134.742 48.6758 136.265 48.6758C137.926 48.6758 139.449 49.0564 140.833 49.8178C142.286 50.5791 143.013 51.5827 143.013 52.8285V70.6853H155.264C156.371 70.6853 157.202 71.2044 157.755 72.2426C158.378 73.2115 158.69 74.3189 158.69 75.5647C158.69 76.8106 158.378 77.9526 157.755 78.9907C157.202 79.9597 156.371 80.4442 155.264 80.4442H143.013V103.077C143.013 105.153 143.428 106.606 144.259 107.437C145.159 108.268 146.681 108.683 148.827 108.683H152.876C154.814 108.683 156.233 109.271 157.132 110.448C158.101 111.624 158.586 112.905 158.586 114.289C158.586 115.742 158.101 117.057 157.132 118.234C156.233 119.411 154.814 119.999 152.876 119.999H148.827Z" fill="black"/>
</svg>
