<svg width="112" height="157" viewBox="0 0 112 157" fill="none" xmlns="http://www.w3.org/2000/svg">
<path d="M34.5398 90.6967C34.5398 89.2775 35.2783 87.9607 36.4891 87.2205L71.4014 65.702C74.1162 64.0426 77.6002 65.9964 77.6002 69.1781V129.342C77.6002 130.706 76.9178 131.979 75.7822 132.735L40.8699 156.218C38.1622 158.019 34.5398 156.078 34.5398 152.826L34.5398 90.6967Z" fill="black"/>
<path d="M74.4541 0.565754C75.5499 -0.0811406 76.885 -0.178923 78.0634 0.30151L109.084 13.4258C112.178 14.6873 112.522 18.9318 109.671 20.6744L36.7776 65.2285C35.6052 65.9451 34.1505 66.0226 32.9088 65.4344L2.33016 50.5264C-0.622425 49.1278 -0.810432 44.997 2.00292 43.3361L74.4541 0.565754Z" fill="black"/>
</svg>
